<svg width="28" height="34" viewBox="0 0 28 34" fill="none" xmlns="http://www.w3.org/2000/svg">
<path d="M22.6716 17.9581C22.688 16.6853 23.0252 15.4372 23.6518 14.3301C24.2785 13.2231 25.1742 12.2929 26.2558 11.6262C25.5687 10.6424 24.6623 9.83267 23.6086 9.26147C22.5548 8.69028 21.3828 8.37332 20.1855 8.33576C17.6315 8.06696 15.1555 9.86813 13.8541 9.86813C12.5274 9.86813 10.5236 8.36245 8.36579 8.40696C6.97008 8.45217 5.60985 8.85913 4.41763 9.58817C3.22541 10.3172 2.24186 11.3435 1.56282 12.567C-1.37865 17.6733 0.815423 25.1779 3.6331 29.3055C5.04285 31.3266 6.69044 33.5843 8.84627 33.5043C10.9559 33.4165 11.7438 32.1554 14.2903 32.1554C16.8131 32.1554 17.5523 33.5043 19.7519 33.4534C22.0156 33.4165 23.4419 31.4232 24.8022 29.3829C25.8151 27.9428 26.5945 26.3511 27.1116 24.6668C25.7964 24.1091 24.6741 23.1755 23.8845 21.9825C23.095 20.7895 22.6731 19.3899 22.6716 17.9581V17.9581Z" fill="white"/>
<path d="M18.5171 5.62214C19.7514 4.13647 20.3595 2.2269 20.2122 0.298943C18.3265 0.497529 16.5847 1.40118 15.3337 2.82985C14.7221 3.52779 14.2537 4.33975 13.9552 5.21933C13.6567 6.0989 13.5341 7.02884 13.5942 7.95597C14.5374 7.96571 15.4705 7.76073 16.3232 7.35647C17.176 6.95221 17.9261 6.35921 18.5171 5.62214Z" fill="white"/>
</svg>
