<svg width="35" height="41" viewBox="0 0 35 41" fill="none" xmlns="http://www.w3.org/2000/svg">
<path d="M0.918642 39.2999L0.807163 39.1921C0.370555 38.7248 0.112793 37.9994 0.112793 37.0599V37.281V3.72193C0.112793 3.71889 0.112793 3.71662 0.112793 3.71419C0.112793 3.71707 0.112793 3.7195 0.112793 3.72253V3.94423C0.112793 2.92696 0.413316 2.16066 0.91684 1.70119L19.5061 20.5012L0.918642 39.2999ZM0.112793 3.71237C0.112793 3.62876 0.115043 3.54758 0.119244 3.46761C0.115043 3.54697 0.112793 3.62876 0.112793 3.71237ZM0.119244 3.46397C0.119244 3.46291 0.119243 3.46169 0.119693 3.46048C0.119243 3.46169 0.119244 3.46291 0.119244 3.46397ZM0.119693 3.45335C0.119693 3.45274 0.119693 3.45213 0.119693 3.45153C0.119693 3.45213 0.119693 3.45274 0.119693 3.45335Z" fill="url(#paint0_linear_447_542)"/>
<path d="M25.7016 26.9922L25.8429 26.911L33.1841 22.6924C33.884 22.29 34.3505 21.8022 34.5832 21.286C34.3511 21.8022 33.8844 22.2906 33.1841 22.6931L25.8429 26.9116L25.7016 26.9922V26.9922ZM25.7034 26.7699L19.5061 20.5012L25.7028 14.2335L33.1841 18.532C34.1341 19.078 34.6675 19.7816 34.7566 20.5005C34.7566 20.5012 34.7566 20.5024 34.7566 20.5034C34.6675 21.2207 34.1341 21.9249 33.1841 22.4708L25.7034 26.7699" fill="url(#paint1_linear_447_542)"/>
<path d="M2.2438 40.0159C1.72452 40.0159 1.27141 39.8452 0.918075 39.5228L0.918677 39.5222C1.27201 39.8446 1.72572 40.0159 2.245 40.0159C2.29001 40.0159 2.33578 40.0147 2.38214 40.0124C2.33518 40.0147 2.28881 40.0159 2.2438 40.0159V40.0159ZM2.2444 39.7936C1.72513 39.7942 1.27201 39.6229 0.918677 39.3005V39.3L19.5062 20.5012L25.7034 26.77L3.92527 39.2845C3.32272 39.63 2.75183 39.7936 2.2444 39.7936V39.7936ZM0.913425 39.5187C0.880567 39.4885 0.848308 39.4564 0.81665 39.4232L0.913425 39.5187Z" fill="url(#paint2_linear_447_542)"/>
<path d="M19.506 20.5011L0.916748 1.70116C1.27009 1.37931 1.7226 1.20861 2.24127 1.20861C2.75005 1.20861 3.32139 1.37279 3.92514 1.71891L25.7027 14.2335L19.506 20.5011V20.5011ZM25.8428 14.0919L3.92514 1.49737C3.32139 1.15109 2.75005 0.986912 2.24127 0.986912C2.23887 0.986912 2.23722 0.986912 2.23482 0.986912C2.23782 0.986912 2.24007 0.986912 2.24367 0.986912C2.75125 0.986912 3.32199 1.15049 3.92514 1.49676L25.8428 14.0919V14.0919Z" fill="url(#paint3_linear_447_542)"/>
<path d="M2.38207 40.0124C2.85378 39.985 3.37606 39.8209 3.9252 39.5061L25.7016 26.9922L3.9252 39.5061C3.37651 39.8215 2.85378 39.985 2.38207 40.0124V40.0124ZM0.918006 39.5227L0.913356 39.5186C0.915007 39.5198 0.916806 39.5215 0.918006 39.5227ZM0.816582 39.4231L0.807129 39.4137V39.4131C0.81073 39.4166 0.813581 39.4201 0.816582 39.4231Z" fill="black"/>
<path d="M25.7017 26.9922L25.843 26.911L25.7017 26.9922Z" fill="url(#paint4_linear_447_542)"/>
<path d="M2.24493 40.0159C1.72566 40.0159 1.27195 39.8446 0.918608 39.5222L0.918006 39.5228C0.916806 39.5215 0.915007 39.5199 0.913356 39.5187L0.816582 39.4232C0.813581 39.4202 0.81073 39.4167 0.807129 39.4132L0.918608 39.3005C1.27195 39.6229 1.72506 39.7942 2.24433 39.7936C2.75176 39.7936 3.32265 39.63 3.9252 39.2845L25.7034 26.77L25.8429 26.9111L25.7016 26.9923L3.9252 39.5062C3.37606 39.8209 2.85378 39.9851 2.38207 40.0124C2.33571 40.0147 2.28995 40.0159 2.24493 40.0159" fill="url(#paint5_linear_447_542)"/>
<path d="M0.807162 39.4138C0.370555 38.9466 0.112793 38.2211 0.112793 37.2817V37.2811C0.112793 38.2211 0.370555 38.946 0.807162 39.4132V39.4138" fill="black"/>
<path d="M0.807164 39.4132C0.370555 38.946 0.112793 38.2212 0.112793 37.2811V37.06C0.112793 37.9995 0.370555 38.725 0.807164 39.1922L0.918643 39.3001L0.807164 39.4132" fill="url(#paint6_linear_447_542)"/>
<path d="M0.807129 39.4132L0.91861 39.3001V39.3005L0.807129 39.4132" fill="url(#paint7_linear_447_542)"/>
<path d="M34.5833 21.286C34.6986 21.0299 34.7567 20.7668 34.7567 20.5035C34.7567 20.503 34.7567 20.5024 34.7567 20.5024C34.7567 20.7662 34.6986 21.0293 34.5833 21.286Z" fill="black"/>
<path d="M25.8429 26.911L25.7034 26.7699L33.1841 22.4708C34.1341 21.925 34.6675 21.2207 34.7566 20.5035C34.7566 20.7667 34.6985 21.0298 34.5832 21.286C34.3504 21.8022 33.884 22.2901 33.1841 22.6925L25.8429 26.911Z" fill="url(#paint8_linear_447_542)"/>
<path d="M34.7566 20.5011V20.5005C34.756 19.7068 34.2315 18.9132 33.184 18.3109L25.8429 14.0924H25.8423L25.8429 14.0919L33.184 18.3103C34.2327 18.9126 34.7578 19.7074 34.7566 20.5011Z" fill="#404040"/>
<path d="M34.7567 20.5006C34.6676 19.7816 34.1342 19.078 33.1842 18.532L25.7029 14.2335L25.8424 14.0924H25.843L33.1842 18.3109C34.2316 18.9132 34.7561 19.7068 34.7567 20.5006Z" fill="url(#paint9_linear_447_542)"/>
<path d="M0.112793 3.71419C0.112793 3.71358 0.112793 3.71297 0.112793 3.71237C0.112793 3.71297 0.112793 3.71358 0.112793 3.71419ZM0.119244 3.46761C0.119244 3.46639 0.119244 3.46518 0.119244 3.46397C0.119244 3.46518 0.119244 3.46639 0.119244 3.46761ZM0.119693 3.46048C0.119693 3.45805 0.119693 3.45577 0.119693 3.45335C0.119693 3.45577 0.119693 3.45805 0.119693 3.46048ZM0.119693 3.45153C0.206565 1.89269 1.04467 0.992256 2.23026 0.986945C1.71624 0.98998 1.26853 1.16069 0.918039 1.4801V1.4795L0.913838 1.48374C0.876929 1.51743 0.841821 1.55309 0.807162 1.58981C0.413316 2.0112 0.164854 2.64244 0.119693 3.45153Z" fill="#404040"/>
<path d="M0.112793 3.94424V3.72255C0.112793 3.71952 0.112793 3.71709 0.112793 3.71421C0.112793 3.7136 0.112793 3.71299 0.112793 3.71239C0.112793 3.62878 0.115043 3.54699 0.119244 3.46763C0.119244 3.46641 0.119244 3.4652 0.119244 3.46399C0.119244 3.46292 0.119243 3.46171 0.119693 3.46049C0.119693 3.45807 0.119693 3.45579 0.119693 3.45336C0.119693 3.45276 0.119693 3.45215 0.119693 3.45154C0.164854 2.64246 0.413317 2.01121 0.807165 1.58982L0.916843 1.7012C0.413317 2.16068 0.112793 2.92697 0.112793 3.94424V3.94424ZM0.913841 1.48376L0.918042 1.47951C0.916842 1.48133 0.915041 1.48254 0.913841 1.48376Z" fill="url(#paint10_linear_447_542)"/>
<path d="M25.7028 14.2335L3.9252 1.71892C3.32145 1.37279 2.75011 1.20861 2.24133 1.20861C1.72266 1.20861 1.27014 1.37932 0.916806 1.70116L0.807129 1.58978C0.841787 1.55306 0.876896 1.5174 0.913805 1.48371C0.915005 1.4825 0.916806 1.48129 0.918006 1.48007C1.26849 1.16066 1.7162 0.98995 2.23023 0.986915C2.23143 0.986915 2.23308 0.986915 2.23488 0.986915C2.23728 0.986915 2.23893 0.986915 2.24133 0.986915C2.75011 0.986915 3.32145 1.1511 3.9252 1.49737L25.8429 14.0919L25.8423 14.0924L25.7028 14.2335Z" fill="url(#paint11_linear_447_542)"/>
<defs>
<linearGradient id="paint0_linear_447_542" x1="17.8578" y1="3.36792" x2="-7.60654" y2="28.5463" gradientUnits="userSpaceOnUse">
<stop stop-color="#00A0FF"/>
<stop offset="0.00657445" stop-color="#00A1FF"/>
<stop offset="0.2601" stop-color="#00BEFF"/>
<stop offset="0.5122" stop-color="#00D2FF"/>
<stop offset="0.7604" stop-color="#00DFFF"/>
<stop offset="1" stop-color="#00E3FF"/>
</linearGradient>
<linearGradient id="paint1_linear_447_542" x1="35.9141" y1="20.5021" x2="-0.390298" y2="20.5021" gradientUnits="userSpaceOnUse">
<stop stop-color="#FFE000"/>
<stop offset="0.4087" stop-color="#FFBD00"/>
<stop offset="0.7754" stop-color="#FFA500"/>
<stop offset="1" stop-color="#FF9C00"/>
</linearGradient>
<linearGradient id="paint2_linear_447_542" x1="22.3998" y1="23.9841" x2="-12.1318" y2="58.1278" gradientUnits="userSpaceOnUse">
<stop stop-color="#FF3A44"/>
<stop offset="1" stop-color="#C31162"/>
</linearGradient>
<linearGradient id="paint3_linear_447_542" x1="-3.90139" y1="-9.58096" x2="11.5183" y2="5.66557" gradientUnits="userSpaceOnUse">
<stop stop-color="#32A071"/>
<stop offset="0.0685" stop-color="#2DA771"/>
<stop offset="0.4762" stop-color="#15CF74"/>
<stop offset="0.8009" stop-color="#06E775"/>
<stop offset="1" stop-color="#00F076"/>
</linearGradient>
<linearGradient id="paint4_linear_447_542" x1="35.9142" y1="20.5021" x2="-0.390166" y2="20.5021" gradientUnits="userSpaceOnUse">
<stop stop-color="#CCB300"/>
<stop offset="0.4087" stop-color="#CC9700"/>
<stop offset="0.7754" stop-color="#CC8400"/>
<stop offset="1" stop-color="#CC7D00"/>
</linearGradient>
<linearGradient id="paint5_linear_447_542" x1="22.3997" y1="23.9841" x2="-12.1318" y2="58.1278" gradientUnits="userSpaceOnUse">
<stop stop-color="#CC2E36"/>
<stop offset="1" stop-color="#9C0E4E"/>
</linearGradient>
<linearGradient id="paint6_linear_447_542" x1="17.8578" y1="3.36798" x2="-7.60654" y2="28.5464" gradientUnits="userSpaceOnUse">
<stop stop-color="#008DE0"/>
<stop offset="0.00657445" stop-color="#008DE0"/>
<stop offset="0.2601" stop-color="#00A7E0"/>
<stop offset="0.5122" stop-color="#00B8E0"/>
<stop offset="0.7604" stop-color="#00C4E0"/>
<stop offset="1" stop-color="#00C7E0"/>
</linearGradient>
<linearGradient id="paint7_linear_447_542" x1="22.4003" y1="23.9844" x2="-12.1307" y2="58.1291" gradientUnits="userSpaceOnUse">
<stop stop-color="#E0333C"/>
<stop offset="1" stop-color="#AB0F56"/>
</linearGradient>
<linearGradient id="paint8_linear_447_542" x1="35.9141" y1="20.5021" x2="-0.390309" y2="20.5021" gradientUnits="userSpaceOnUse">
<stop stop-color="#E0C500"/>
<stop offset="0.4087" stop-color="#E0A600"/>
<stop offset="0.7754" stop-color="#E09100"/>
<stop offset="1" stop-color="#E08900"/>
</linearGradient>
<linearGradient id="paint9_linear_447_542" x1="35.9142" y1="20.5021" x2="-0.390172" y2="20.5021" gradientUnits="userSpaceOnUse">
<stop stop-color="#FFE840"/>
<stop offset="0.4087" stop-color="#FFCE40"/>
<stop offset="0.7754" stop-color="#FFBC40"/>
<stop offset="1" stop-color="#FFB540"/>
</linearGradient>
<linearGradient id="paint10_linear_447_542" x1="17.8578" y1="3.36793" x2="-7.60654" y2="28.5463" gradientUnits="userSpaceOnUse">
<stop stop-color="#40B8FF"/>
<stop offset="0.00657445" stop-color="#40B9FF"/>
<stop offset="0.2601" stop-color="#40CEFF"/>
<stop offset="0.5122" stop-color="#40DDFF"/>
<stop offset="0.7604" stop-color="#40E7FF"/>
<stop offset="1" stop-color="#40EAFF"/>
</linearGradient>
<linearGradient id="paint11_linear_447_542" x1="-3.90133" y1="-9.58096" x2="11.5184" y2="5.66557" gradientUnits="userSpaceOnUse">
<stop stop-color="#65B895"/>
<stop offset="0.0685" stop-color="#62BD95"/>
<stop offset="0.4762" stop-color="#50DB97"/>
<stop offset="0.8009" stop-color="#44ED98"/>
<stop offset="1" stop-color="#40F498"/>
</linearGradient>
</defs>
</svg>
